<svg version="1.2" xmlns="http://www.w3.org/2000/svg" xmlns:xlink="http://www.w3.org/1999/xlink" overflow="visible" preserveAspectRatio="none" viewBox="0 0 152 152" xml:space="preserve" y="0px" x="0px" id="Capa_1_1662480688633" width="20" height="20"><g transform="translate(1, 1)"><style type="text/css">
	.st0_1662480688633{fill:#008000;}
	.st1_1662480688633{fill:#FFFFFF;}
</style><g>
	<circle r="71.5" cy="75.5" cx="75.5" class="st0_1662480688633" vector-effect="non-scaling-stroke"/>
</g><g>
	<path d="M59.2,115.3c-1.4,0-2.7-0.5-3.7-1.5L27.2,86c-2.1-2.1-2.1-5.4-0.1-7.6c2.1-2.1,5.4-2.1,7.6-0.1L58.8,102   l49.9-60.2c1.9-2.3,5.2-2.6,7.5-0.7c2.3,1.9,2.6,5.2,0.7,7.5l-53.6,64.7c-1,1.2-2.3,1.8-3.8,1.9C59.4,115.3,59.3,115.3,59.2,115.3z" class="st1_1662480688633" vector-effect="non-scaling-stroke"/>
</g></g></svg>