<svg version="1.2" xmlns="http://www.w3.org/2000/svg" xmlns:xlink="http://www.w3.org/1999/xlink" overflow="visible" preserveAspectRatio="none" viewBox="0 0 249.89999389648438 51.599998474121094" xml:space="preserve" y="0px" x="0px" id="Capa_1_1717784120534" width="80" height="16"><g transform="translate(1, 1)"><style type="text/css">
	.st0_1717784120534{fill:#E30613;}
</style><path d="M112.1,26.2c-2.7-2.7-6-4-9.7-4s-6.8,1.3-9.5,4c-2.7,2.7-4,6-4,9.8s1.3,7,4,9.7c2.6,2.7,5.9,4,9.5,4  s7-1.3,9.7-4c2.7-2.7,3.9-5.9,3.9-9.7C116,32,114.7,28.9,112.1,26.2 M107.5,41c-1.3,1.5-3.1,2.1-5,2.1s-3.7-0.7-5-2.1  c-1.3-1.5-2.1-3.2-2.1-5.1c0-2.1,0.7-3.8,2.1-5.1c1.3-1.5,3.1-2.1,5-2.1c2-0.1,3.7,0.6,5.1,2.1c1.3,1.3,2,3.1,2.1,5.1  C109.5,37.8,108.9,39.5,107.5,41" class="st0_1717784120534" vector-effect="non-scaling-stroke"/><path d="M16.7,15.4c-4.6-0.1-8.6,1.6-11.9,5C1.6,23.7,0,27.6,0,32.4c0,4.6,1.6,8.7,4.9,12s7.1,4.9,11.9,4.9  c3.8,0,7.2-1.1,10.1-3.4c2.9-2.3,4.9-5.4,5.9-8.9h-6.8c-0.9,1.7-2.1,3.2-3.7,4.3c-1.7,1.1-3.5,1.6-5.6,1.6c-2.9,0-5.4-1.1-7.3-3.1  c-2.1-2.1-3.1-4.5-3.1-7.3c0-2.9,1-5.4,3.1-7.5c2-2,4.4-3.1,7.3-3.1c2,0,3.8,0.6,5.6,1.7c1.6,1.1,2.8,2.6,3.7,4.3h6.8  c-1-3.7-2.9-6.6-5.9-8.9C24,16.5,20.4,15.3,16.7,15.4" class="st0_1717784120534" vector-effect="non-scaling-stroke"/><path d="M58.1,22c-4.4-0.1-7.5,1.1-9.2,3.4c-1.1,1.5-1.7,3.3-1.8,5.7h6.5c0.1-1.1,0.5-1.8,1-2.3  c0.7-0.9,1.8-1.3,3.4-1.2c1.3-0.1,2.4,0.2,3.2,0.6c0.7,0.4,1.1,1.1,1.1,2.2c0,0.9-0.5,1.6-1.5,2l-5,0.9c-2.3,0.4-4.2,0.9-5.6,1.7  c-2.4,1.5-3.7,3.8-3.5,7.1c-0.1,2.3,0.7,4.2,2.2,5.6c1.3,1.1,3.2,1.7,5.4,1.8c3.5-0.1,6.4-1,8.4-2.7v2.7h6.5V30.2  c0-3.2-1.1-5.4-3.3-6.5C63.3,22.5,60.9,22,58.1,22 M60.8,36.8l1.2-0.7v2.7c0,2.2-0.6,3.8-1.8,4.6c-1.2,0.9-2.6,1.3-4,1.3  c-1,0-1.7-0.2-2.3-0.7c-0.6-0.6-1-1.3-1-2.6c0-1.3,0.5-2.2,1.6-2.9c0.6-0.4,1.7-0.7,3.1-0.9L60.8,36.8z" class="st0_1717784120534" vector-effect="non-scaling-stroke"/><rect height="34" width="6.5" class="st0_1717784120534" y="15.4" x="36.1" vector-effect="non-scaling-stroke"/><g>
	<path d="M84.1,23c-1.7,0.7-3.3,1.8-4.6,3.7v-3.3h-6.2v26h6.5V36.9c0-2.1,0.2-3.7,0.9-4.5c0.5-1,1.2-1.8,2.2-2.4   c1.1-0.7,2.3-1.1,3.5-1.1l2,0.1v-6.6l-1.7-0.1L84.1,23z" class="st0_1717784120534" vector-effect="non-scaling-stroke"/>
</g><rect height="5.9" width="22.2" class="st0_1717784120534" transform="matrix(0.7067 -0.7075 0.7075 0.7067 26.7552 90.8811)" y="10.2" x="111.9" vector-effect="non-scaling-stroke"/><rect height="16.9" width="5.9" class="st0_1717784120534" x="100.4" vector-effect="non-scaling-stroke"/><rect height="5.9" width="17.2" class="st0_1717784120534" y="29.6" x="120" vector-effect="non-scaling-stroke"/><path d="M247.9,37.6c-1.7,0-3.4,0.1-5.1,0.1c-3.8,0-7.6,0-11.4,0c-0.3,2,0.7,4.1,2.4,5.1c2.5,1.5,6,0.9,9.1-1.5  c1.3,1.3,2.5,2.7,3.8,4c-3.1,3.4-7.2,4.4-11.8,3.8c-5.9-0.8-9.1-4.1-9.9-10c-0.4-2.7-0.4-5.4,0.3-8.1c1.4-5.8,5.6-9.2,11.4-9  c5.8,0.1,9.9,3.8,11,9.7c0.1,0.3,0.2,0.6,0.3,0.9C247.9,34.3,247.9,35.9,247.9,37.6z M241.4,33.1c-0.2-3.7-2.1-5.6-5.2-5.5  c-2.9,0.1-4.8,2.3-4.8,5.5C234.7,33.1,238,33.1,241.4,33.1z" vector-effect="non-scaling-stroke"/><path d="M165.5,48.9c-2.2,0-4.2,0-6.3,0c0-0.7-0.1-1.4-0.1-2.1c-0.2,0.1-0.4,0.2-0.5,0.3c-2.9,3-8.5,2.6-11.4,0.6  c-1.8-1.2-2.7-2.9-3.1-4.9c-0.9-4.6-1-9.2-0.1-13.8c1.3-6.8,9.3-9.4,14.6-4.9c0.1,0.1,0.2,0.1,0.6,0.4c0-2.1,0-4.1,0-6  c0-1.9,0-3.9,0-5.9c2.2,0,4.3,0,6.5,0C165.5,24.7,165.5,36.7,165.5,48.9z M159.1,35.6c-0.2-1.5-0.2-3-0.6-4.5  c-0.5-2.1-2-3.2-4.1-3.1c-2.2,0-3.5,1-4,3.2c-0.7,2.9-0.7,5.9,0,8.8c0.5,2.2,1.8,3.3,4,3.3c2.2,0,3.7-1.1,4.1-3.3  C158.9,38.6,159,37.1,159.1,35.6z" vector-effect="non-scaling-stroke"/><path d="M224.8,22.3c-1.3,3.4-2.4,6.6-3.6,9.8c-1.9,5.3-3.9,10.5-5.7,15.8c-0.3,0.9-0.7,1.2-1.6,1.1c-1-0.1-2.1,0.1-3.1-0.1  c-0.4,0-1-0.4-1.2-0.7c-3.1-8.4-6.2-16.8-9.3-25.2c-0.1-0.1-0.1-0.3-0.1-0.7c2.2,0,4.3,0,6.4,0c0.3,0,0.6,0.7,0.8,1.1  c1.5,4.6,3,9.2,4.5,13.8c0.1,0.4,0.3,0.7,0.5,1.3c0.2-0.6,0.4-1,0.5-1.3c1.5-4.6,3-9.2,4.5-13.8c0.3-0.8,0.6-1.2,1.6-1.1  C220.8,22.4,222.7,22.3,224.8,22.3z" vector-effect="non-scaling-stroke"/><path d="M170.6,22.4c2.1,0,4.2,0,6.3,0c0,0.7,0.1,1.4,0.1,2.2c5.2-3.4,9.7-3.4,12.7-0.1c-1.7,1.6-3.3,3.1-5.1,4.8  c-0.4-0.3-1.1-0.8-1.9-1c-2.8-0.9-5.5,0.9-5.6,3.9c-0.2,3.4-0.1,6.9-0.1,10.3c0,2.1,0,4.3,0,6.5c-2.2,0-4.4,0-6.5,0  C170.6,40,170.6,31.2,170.6,22.4z" vector-effect="non-scaling-stroke"/><path d="M198.2,48.9c-2.2,0-4.3,0-6.5,0c0-8.9,0-17.6,0-26.5c2.2,0,4.3,0,6.5,0C198.2,31.2,198.2,40,198.2,48.9z" vector-effect="non-scaling-stroke"/><path d="M195,10.7c2.3,0,4.1,1.9,4.1,4.2c0,2.3-1.9,4.1-4.1,4.1c-2.3,0-4.1-1.8-4.2-4.2C190.8,12.5,192.6,10.7,195,10.7z" vector-effect="non-scaling-stroke"/></g></svg>