<svg version="1.2" xmlns="http://www.w3.org/2000/svg" xmlns:xlink="http://www.w3.org/1999/xlink" overflow="visible" preserveAspectRatio="none" viewBox="0 0 61.79999923706055 59.5" xml:space="preserve" y="0px" x="0px" id="Capa_1" width="52" height="50"><g transform="translate(1, 1)"><style type="text/css">
	.st0{fill:#EFEA38;}
	.st1{fill:#E00820;}
</style><path d="M59.9,0H10C4.5,0,0,4.5,0,10v47.5L59.9,0z" class="st0" vector-effect="non-scaling-stroke"/><g>
	<path d="M5.7,29.7l6.4,5l0,0l-4.3-7l1.6-1.5l6.3,10.2l-1.9,1.9l-6.5-5.1l0,0l4.4,7.1l-1.6,1.5L3.8,31.6L5.7,29.7z" class="st1" vector-effect="non-scaling-stroke"/>
	<path d="M12,23.6l4.4,7.1c0.6,1,1.3,1.6,2.1,0.8c0.8-0.8,0.5-1.7-0.1-2.7L14,21.7l1.7-1.6l4.4,7.1   c1.6,2.6,0.7,4.5-0.6,5.9c-1.4,1.3-3,2-4.7-0.7l-4.4-7.1L12,23.6z" class="st1" vector-effect="non-scaling-stroke"/>
	<path d="M21.4,14.6l1,1.7l-3,2.9l1.5,2.4l2.8-2.7l1,1.7l-2.8,2.7l1.7,2.7l3.1-3l1,1.7L23,29.3l-6.3-10.2L21.4,14.6z" class="st1" vector-effect="non-scaling-stroke"/>
	<path d="M23.5,12.5l5.9,6.4l0,0L26,10.1l1.8-1.7l4.4,12l-2.2,2.1l-8.3-8.3L23.5,12.5z" class="st1" vector-effect="non-scaling-stroke"/>
	<path d="M30.8,5.2C33.3,2.7,35,4.6,37,7.7c1.9,3.1,3,5.6,0.4,8.1c-2.6,2.5-4.2,0.6-6.2-2.5   C29.3,10.1,28.2,7.6,30.8,5.2z M36.4,14.2c1-1,0.5-2.2-1.2-4.9c-1.7-2.7-2.5-3.6-3.5-2.6c-1,1-0.5,2.2,1.2,4.9   C34.6,14.3,35.4,15.2,36.4,14.2z" class="st1" vector-effect="non-scaling-stroke"/>
</g></g></svg>