<svg version="1.2" xmlns="http://www.w3.org/2000/svg" xmlns:xlink="http://www.w3.org/1999/xlink" overflow="visible" preserveAspectRatio="none" viewBox="0 0 341.5 50.5" xml:space="preserve" y="0px" x="0px" id="Capa_1_1717784120537" width="98" height="14"><g transform="translate(1, 1)"><style type="text/css">
	.st0_1717784120537{fill:#0091D3;}
</style><g>
	<path d="M60.6,5.6c-1,0.3-2,0.8-2.8,1.6c-0.9,0.8-1.5,1.7-1.9,2.9c-0.5,1.5-0.7,3.5-0.7,6l-3.5,0v6h3.4v20.4h10.4V22   h4.5v-6h-4.5v-0.9c0-1.4,0.2-2.3,0.7-2.8c0.4-0.5,1.4-0.7,2.7-0.7c0.3,0,0.6,0,1.1,0V5.1C68.8,5,67.9,5,67.3,5   C64.3,5,62.1,5.2,60.6,5.6 M74.9,42.4h10.5V16H74.9V42.4z M74.9,12.6h10.5V5H74.9V12.6z M108.9,15.2c-1.9,0-3.6,0.4-5,1.1   c-1.4,0.8-2.7,2-4,3.7V16h-9.7v26.4h10.5V28.5c0-1.8,0.4-3.1,1.1-3.9c0.7-0.8,1.7-1.2,2.9-1.2c1.2,0,2.1,0.4,2.8,1.1   c0.7,0.7,1,1.8,1,3.3v14.6h10.6V25.9c0-3.5-0.9-6.2-2.7-8C114.6,16.1,112.1,15.2,108.9,15.2 M3.3,12.6l10.5,0V5H3.3V12.6z    M3.3,42.4h10.5V16H3.3V42.4z M37.3,15.2c-1.9,0-3.6,0.4-5,1.1c-1.4,0.8-2.7,2-4,3.7V16h-9.7v26.4h10.5V28.5c0-1.8,0.4-3.1,1.1-3.9   c0.7-0.8,1.7-1.2,2.9-1.2c1.2,0,2.1,0.4,2.8,1c0.7,0.7,1,1.8,1,3.3v14.6h10.6V25.9c0-3.5-0.9-6.2-2.7-8   C43,16.1,40.5,15.2,37.3,15.2 M240.5,18.2c-0.8-0.9-1.9-1.7-3.1-2.2c-1.3-0.5-2.8-0.8-4.5-0.8c-2,0-3.8,0.4-5.2,1.1   c-1.4,0.7-2.8,1.9-4.2,3.7c-0.9-1.6-2-2.8-3.2-3.6c-1.3-0.8-2.9-1.2-4.9-1.2c-1.9,0-3.5,0.4-5,1.2c-1.4,0.8-2.7,1.9-3.9,3.5V16   h-9.6v26.3h10.3V28.6c0-1.8,0.4-3.2,1.1-4c0.7-0.8,1.7-1.2,2.9-1.2c1.1,0,2.1,0.5,2.7,1.4c0.5,0.7,0.7,1.8,0.7,3.5v14.1h10.3V28.5   c0-1.7,0.3-2.9,0.9-3.6c0.8-1,1.8-1.5,3.1-1.5c1,0,1.9,0.4,2.5,1.1c0.7,0.7,1,1.8,1,3.3v14.6h10.4V26.1c0-2-0.3-3.8-0.9-5.5   C241.5,19.6,241.1,18.9,240.5,18.2 M181.6,29.2c0,1.5-0.1,2.6-0.4,3.4c-0.3,0.7-0.7,1.3-1.4,1.8c-0.7,0.4-1.4,0.6-2.3,0.6   c-1.1,0-2-0.3-2.7-1c-0.7-0.7-1-1.8-1-3.2V16h-10.5v16.6c0,2.6,0.3,4.6,1,6c0.7,1.4,1.8,2.5,3.4,3.3c1.6,0.8,3.4,1.2,5.5,1.2   c1.6,0,3-0.2,4.2-0.7c1.2-0.5,2.2-1.1,3-1.8c0.6-0.5,1.2-1.2,1.9-2.2v3.9h9.8V16h-10.5V29.2z M123.8,12.6h10.5V5h-10.5V12.6z    M153.4,7.7h-10.4v8.1h-3.9v6h3.7v11.7c0,2.8,0.2,4.7,0.7,5.7c0.5,1.1,1.4,1.9,2.6,2.5c1.2,0.6,3.3,0.8,6.3,0.8   c2.1,0,4-0.1,5.8-0.3v-7.4h-2c-1.1,0-1.9-0.2-2.3-0.6c-0.5-0.4-0.7-1.1-0.7-2V21.8h5.2v-6h-5L153.4,7.7z M123.8,42.4h10.5V16h-10.5   V42.4z" class="st0_1717784120537" vector-effect="non-scaling-stroke"/>
</g><g>
	<g>
		<path d="M247.5,35.3c0.3-0.1,0.8-0.1,1.2-0.1c0.7,0,1.1,0.1,1.4,0.4c0.2,0.2,0.4,0.5,0.4,0.9c0,0.6-0.4,1.1-0.9,1.2v0    c0.4,0.1,0.6,0.5,0.7,1c0.2,0.7,0.3,1.1,0.4,1.3H250c-0.1-0.1-0.2-0.6-0.3-1.2c-0.1-0.7-0.4-0.9-1-0.9h-0.6v2.1h-0.6V35.3z     M248.1,37.5h0.6c0.7,0,1.1-0.4,1.1-0.9c0-0.6-0.5-0.9-1.1-0.9c-0.3,0-0.5,0-0.6,0.1V37.5z" class="st0_1717784120537" vector-effect="non-scaling-stroke"/>
	</g>
	<g>
		<path d="M249,41.9c-2.3,0-4.2-1.9-4.2-4.2s1.9-4.2,4.2-4.2s4.2,1.9,4.2,4.2S251.3,41.9,249,41.9z M249,34.1    c-2,0-3.7,1.6-3.7,3.7c0,2,1.6,3.7,3.7,3.7s3.7-1.6,3.7-3.7C252.7,35.8,251.1,34.1,249,34.1z" class="st0_1717784120537" vector-effect="non-scaling-stroke"/>
	</g>
</g><g>
	<path d="M265.2,12.9l9.2,23.5h0.1l9.2-23.5h5v29h-3.9V30.4l0.4-11.8l-0.1,0l-9.4,23.3h-2.6l-9.4-23.2l-0.1,0l0.4,11.7   v11.5h-3.9v-29H265.2z" class="st0_1717784120537" vector-effect="non-scaling-stroke"/>
	<path d="M308.4,41.9c-0.1-0.6-0.2-1.2-0.3-1.7c-0.1-0.5-0.1-1-0.1-1.5c-0.7,1-1.7,1.9-2.9,2.6s-2.4,1-3.8,1   c-2.2,0-4-0.6-5.1-1.7c-1.2-1.1-1.8-2.7-1.8-4.7c0-2.1,0.8-3.7,2.5-4.8c1.7-1.2,3.9-1.7,6.8-1.7h4.3v-2.1c0-1.3-0.4-2.3-1.2-3   S305,23,303.6,23c-1.3,0-2.3,0.3-3.1,1c-0.8,0.6-1.2,1.4-1.2,2.3h-3.7l0-0.1c-0.1-1.6,0.7-3,2.2-4.3s3.6-2,6-2   c2.4,0,4.4,0.6,5.9,1.9s2.2,3,2.2,5.4v10.4c0,0.8,0,1.5,0.1,2.2c0.1,0.7,0.2,1.4,0.4,2.1H308.4z M301.9,39c1.4,0,2.7-0.4,3.8-1.1   s1.9-1.6,2.2-2.5v-3.5h-4.4c-1.6,0-2.8,0.4-3.8,1.2c-0.9,0.8-1.4,1.7-1.4,2.8c0,1,0.3,1.7,0.9,2.3C299.9,38.7,300.8,39,301.9,39z" class="st0_1717784120537" vector-effect="non-scaling-stroke"/>
	<path d="M321.9,14.8h-3.9v-4h3.9V14.8z M321.9,41.9h-3.9V20.3h3.9V41.9z" class="st0_1717784120537" vector-effect="non-scaling-stroke"/>
	<path d="M332.1,41.9h-3.9v-31h3.9V41.9z" class="st0_1717784120537" vector-effect="non-scaling-stroke"/>
</g></g></svg>