<svg version="1.2" xmlns="http://www.w3.org/2000/svg" xmlns:xlink="http://www.w3.org/1999/xlink" overflow="visible" preserveAspectRatio="none" viewBox="0 0 14.000005631238238 10.999993205525927" width="14.000005631238238" height="10.999993205525927"><g transform="translate(0, 0)"><g transform="translate(-0.000011479718513706652, 0.000005705525924818566) rotate(0)"><path d="M13.24241,3.32221c-1.75572,-1.4301 -3.91203,-2.2722 -6.24214,-2.2722c-2.241,-0.00388 -4.42588,0.79169 -6.24307,2.27325c-0.19048,0.15637 -0.45312,0.13416 -0.62087,-0.0525c-0.09448,-0.10392 -0.14395,-0.24936 -0.13536,-0.39802c0.00858,-0.14865 0.07435,-0.28561 0.17998,-0.37478c1.91465,-1.57185 4.27172,-2.49795 6.81933,-2.49795c2.44992,-0.00429 4.83777,0.87039 6.81933,2.49795c0.1055,0.08934 0.17109,0.22638 0.17949,0.37503c0.0084,0.14865 -0.04122,0.294 -0.13581,0.39777c-0.16544,0.18795 -0.43033,0.20685 -0.62087,0.05145zM11.25579,5.56268c-1.27,-0.95964 -2.74706,-1.46838 -4.25524,-1.46563c-1.50849,-0.00296 -2.9859,0.50579 -4.25617,1.46563c-0.19141,0.14619 -0.44311,0.11658 -0.6063,-0.07131c-0.09769,-0.11006 -0.14787,-0.26639 -0.13649,-0.42518c0.01138,-0.15879 0.08311,-0.30296 0.19508,-0.39211c1.38184,-1.05973 3.03242,-1.67407 4.80388,-1.67407c1.70501,-0.00329 3.37405,0.57834 4.80388,1.67407c0.11138,0.08966 0.18262,0.23371 0.19398,0.39221c0.01136,0.1585 -0.03837,0.31462 -0.1354,0.42507c-0.16087,0.18979 -0.41567,0.21612 -0.60723,0.07131zM9.81815,7.90264c-0.14878,0.17662 -0.37847,0.20953 -0.56724,0.09983c-0.67883,-0.39383 -1.44321,-0.61434 -2.25037,-0.61434c-0.78003,-0.00154 -1.54994,0.20826 -2.25037,0.61324c-0.1897,0.1097 -0.41939,0.07679 -0.56817,-0.09873l-0.01395,-0.01646c-0.21016,-0.24793 -0.17203,-0.6637 0.09299,-0.82277c0.82203,-0.49366 1.7538,-0.77231 2.7395,-0.77231c0.95209,-0.00178 1.89096,0.2629 2.7395,0.77231c0.26502,0.15907 0.30315,0.57484 0.09299,0.82277zM7.98624,10.06379l-0.65744,0.7756c-0.18156,0.21413 -0.47588,0.21413 -0.65744,0l-0.65651,-0.7745c-0.18226,-0.21502 -0.18412,-0.57046 0.0372,-0.72404c0.28689,-0.20146 0.61464,-0.3076 0.9485,-0.30717c0.33387,-0.00043 0.66161,0.10571 0.9485,0.30717c0.22132,0.15358 0.21946,0.50902 0.0372,0.72404z" style="stroke-width: 0; stroke-linecap: butt; stroke-linejoin: miter; fill: rgb(255, 255, 255);" vector-effect="non-scaling-stroke"/></g><defs><path id="path-166374294092983953" d="M13.24241,3.32221c-1.75572,-1.4301 -3.91203,-2.2722 -6.24214,-2.2722c-2.241,-0.00388 -4.42588,0.79169 -6.24307,2.27325c-0.19048,0.15637 -0.45312,0.13416 -0.62087,-0.0525c-0.09448,-0.10392 -0.14395,-0.24936 -0.13536,-0.39802c0.00858,-0.14865 0.07435,-0.28561 0.17998,-0.37478c1.91465,-1.57185 4.27172,-2.49795 6.81933,-2.49795c2.44992,-0.00429 4.83777,0.87039 6.81933,2.49795c0.1055,0.08934 0.17109,0.22638 0.17949,0.37503c0.0084,0.14865 -0.04122,0.294 -0.13581,0.39777c-0.16544,0.18795 -0.43033,0.20685 -0.62087,0.05145zM11.25579,5.56268c-1.27,-0.95964 -2.74706,-1.46838 -4.25524,-1.46563c-1.50849,-0.00296 -2.9859,0.50579 -4.25617,1.46563c-0.19141,0.14619 -0.44311,0.11658 -0.6063,-0.07131c-0.09769,-0.11006 -0.14787,-0.26639 -0.13649,-0.42518c0.01138,-0.15879 0.08311,-0.30296 0.19508,-0.39211c1.38184,-1.05973 3.03242,-1.67407 4.80388,-1.67407c1.70501,-0.00329 3.37405,0.57834 4.80388,1.67407c0.11138,0.08966 0.18262,0.23371 0.19398,0.39221c0.01136,0.1585 -0.03837,0.31462 -0.1354,0.42507c-0.16087,0.18979 -0.41567,0.21612 -0.60723,0.07131zM9.81815,7.90264c-0.14878,0.17662 -0.37847,0.20953 -0.56724,0.09983c-0.67883,-0.39383 -1.44321,-0.61434 -2.25037,-0.61434c-0.78003,-0.00154 -1.54994,0.20826 -2.25037,0.61324c-0.1897,0.1097 -0.41939,0.07679 -0.56817,-0.09873l-0.01395,-0.01646c-0.21016,-0.24793 -0.17203,-0.6637 0.09299,-0.82277c0.82203,-0.49366 1.7538,-0.77231 2.7395,-0.77231c0.95209,-0.00178 1.89096,0.2629 2.7395,0.77231c0.26502,0.15907 0.30315,0.57484 0.09299,0.82277zM7.98624,10.06379l-0.65744,0.7756c-0.18156,0.21413 -0.47588,0.21413 -0.65744,0l-0.65651,-0.7745c-0.18226,-0.21502 -0.18412,-0.57046 0.0372,-0.72404c0.28689,-0.20146 0.61464,-0.3076 0.9485,-0.30717c0.33387,-0.00043 0.66161,0.10571 0.9485,0.30717c0.22132,0.15358 0.21946,0.50902 0.0372,0.72404z" vector-effect="non-scaling-stroke"/></defs></g></svg>