<svg version="1.2" xmlns="http://www.w3.org/2000/svg" xmlns:xlink="http://www.w3.org/1999/xlink" overflow="visible" preserveAspectRatio="none" viewBox="0 0 11.999986981618033 12.999995169402387" width="11.999986981618033" height="12.999995169402387"><g transform="translate(0, 0)"><g transform="translate(-0.000040716644684348977, -0.000023430491280879758) rotate(0)"><path d="M2.74077,1.07918c-0.08956,-0.12481 -0.2243,-0.20192 -0.36995,-0.21171c-0.14565,-0.00979 -0.28816,0.04867 -0.39128,0.16053l-0.77548,0.84092c-0.36224,0.39324 -0.49573,0.94979 -0.33749,1.43809c0.65678,2.02111 1.72517,3.85611 3.1259,5.36887c1.3964,1.51745 3.09022,2.67487 4.95584,3.38642c0.45074,0.17143 0.96447,0.02681 1.32746,-0.36562l0.77548,-0.8401c0.10325,-0.11172 0.15722,-0.2661 0.14818,-0.42389c-0.00904,-0.15778 -0.08022,-0.30376 -0.19543,-0.40078l-1.73019,-1.45759c-0.12328,-0.10358 -0.28363,-0.14012 -0.43499,-0.09912l-1.64245,0.44443c-0.44595,0.12075 -0.91767,-0.02082 -1.24271,-0.37293l-1.84194,-1.99626c-0.32529,-0.35196 -0.45626,-0.86302 -0.34499,-1.34628l0.41099,-1.77933c0.03785,-0.16397 0.00412,-0.33768 -0.0915,-0.47124zM1.41336,0.41544c0.26549,-0.28771 0.63227,-0.438 1.00705,-0.41266c0.37479,0.02534 0.72147,0.22387 0.95188,0.5451l1.34546,1.87358c0.24674,0.34368 0.33374,0.79136 0.23624,1.21385l-0.41024,1.77933c-0.04314,0.18745 0.00751,0.38569 0.1335,0.52242l1.84269,1.99626c0.12637,0.13677 0.30972,0.19166 0.48298,0.14462l1.6417,-0.44443c0.38995,-0.10563 0.80307,-0.01126 1.12046,0.25593l1.72944,1.45759c0.62173,0.52405 0.67873,1.51934 0.12225,2.12139l-0.77548,0.8401c-0.55498,0.60124 -1.38446,0.86529 -2.15768,0.57036c-1.97905,-0.75437 -3.77592,-1.98177 -5.25733,-3.59116c-1.48549,-1.60464 -2.61846,-3.55098 -3.31489,-5.69467c-0.27149,-0.83685 -0.02775,-1.73627 0.52723,-2.3375l0.77548,-0.8401z" style="stroke-width: 0; stroke-linecap: butt; stroke-linejoin: miter; fill: rgb(255, 255, 255);" vector-effect="non-scaling-stroke"/></g><defs><path id="path-166374193049672373" d="M2.74077,1.07918c-0.08956,-0.12481 -0.2243,-0.20192 -0.36995,-0.21171c-0.14565,-0.00979 -0.28816,0.04867 -0.39128,0.16053l-0.77548,0.84092c-0.36224,0.39324 -0.49573,0.94979 -0.33749,1.43809c0.65678,2.02111 1.72517,3.85611 3.1259,5.36887c1.3964,1.51745 3.09022,2.67487 4.95584,3.38642c0.45074,0.17143 0.96447,0.02681 1.32746,-0.36562l0.77548,-0.8401c0.10325,-0.11172 0.15722,-0.2661 0.14818,-0.42389c-0.00904,-0.15778 -0.08022,-0.30376 -0.19543,-0.40078l-1.73019,-1.45759c-0.12328,-0.10358 -0.28363,-0.14012 -0.43499,-0.09912l-1.64245,0.44443c-0.44595,0.12075 -0.91767,-0.02082 -1.24271,-0.37293l-1.84194,-1.99626c-0.32529,-0.35196 -0.45626,-0.86302 -0.34499,-1.34628l0.41099,-1.77933c0.03785,-0.16397 0.00412,-0.33768 -0.0915,-0.47124zM1.41336,0.41544c0.26549,-0.28771 0.63227,-0.438 1.00705,-0.41266c0.37479,0.02534 0.72147,0.22387 0.95188,0.5451l1.34546,1.87358c0.24674,0.34368 0.33374,0.79136 0.23624,1.21385l-0.41024,1.77933c-0.04314,0.18745 0.00751,0.38569 0.1335,0.52242l1.84269,1.99626c0.12637,0.13677 0.30972,0.19166 0.48298,0.14462l1.6417,-0.44443c0.38995,-0.10563 0.80307,-0.01126 1.12046,0.25593l1.72944,1.45759c0.62173,0.52405 0.67873,1.51934 0.12225,2.12139l-0.77548,0.8401c-0.55498,0.60124 -1.38446,0.86529 -2.15768,0.57036c-1.97905,-0.75437 -3.77592,-1.98177 -5.25733,-3.59116c-1.48549,-1.60464 -2.61846,-3.55098 -3.31489,-5.69467c-0.27149,-0.83685 -0.02775,-1.73627 0.52723,-2.3375l0.77548,-0.8401z" vector-effect="non-scaling-stroke"/></defs></g></svg>